<svg version="1.1" id="Layer_1" xmlns="http://www.w3.org/2000/svg" xmlns:xlink="http://www.w3.org/1999/xlink" x="0px" y="0px"
	 width="100%" viewBox="0 0 500 500" enable-background="new 0 0 500 500" xml:space="preserve">
<path fill="#FFFFFF" opacity="1.000000" stroke="none" 
	d="
M328.000000,501.000000 
	C218.666687,501.000000 109.833382,501.000000 1.000058,501.000000 
	C1.000039,334.333405 1.000039,167.666794 1.000019,1.000148 
	C167.666565,1.000099 334.333130,1.000099 500.999756,1.000049 
	C500.999847,167.666519 500.999847,334.333038 500.999939,500.999786 
	C443.500000,501.000000 386.000000,501.000000 328.000000,501.000000 
M303.768860,366.985718 
	C305.842773,363.622375 307.916656,360.259003 310.914978,356.707672 
	C318.886230,356.677765 326.857758,356.589203 334.828644,356.631073 
	C348.282898,356.701691 359.193329,346.031708 358.371887,332.660339 
	C357.670563,321.244263 358.247925,309.749634 358.577454,298.198395 
	C358.577454,298.198395 358.903687,298.131287 359.617737,298.551819 
	C372.568634,298.623047 385.519684,298.738586 398.470154,298.691467 
	C399.660278,298.687134 400.846649,297.644562 402.034760,297.084106 
	C400.736603,296.467041 399.448730,295.342255 398.138641,295.315704 
	C390.002045,295.150848 381.859528,295.157990 373.720886,295.259857 
	C368.780090,295.321655 363.842682,295.656311 358.579254,295.799225 
	C358.579254,295.799225 358.259308,295.711212 358.255829,294.811554 
	C358.281433,280.324951 358.307037,265.838348 358.628387,251.247437 
	C358.628387,251.247437 358.920990,251.127335 359.867920,251.116592 
	C380.576630,251.084442 401.285309,251.052292 422.277344,251.704071 
	C424.668091,261.172577 429.298767,264.570740 439.070435,264.027405 
	C445.835663,263.651215 451.031097,257.529572 451.018860,249.948944 
	C451.006653,242.387405 445.778290,236.324188 438.966003,235.971466 
	C429.218048,235.466736 425.660950,238.043274 421.057892,248.142731 
	C400.388428,248.131409 379.718964,248.120071 358.680084,247.873871 
	C358.680084,247.873871 358.279266,247.697952 358.251740,246.800873 
	C358.249695,231.630127 358.247650,216.459396 359.125702,201.117355 
	C370.104675,201.088303 381.083618,201.059296 392.062592,201.030182 
	C394.890656,201.022690 397.730316,201.154892 400.539673,200.921692 
	C401.381439,200.851837 402.138550,199.761566 402.934418,199.138733 
	C402.160095,198.486130 401.475098,197.496750 400.589935,197.261948 
	C399.344147,196.931503 397.949890,197.164474 396.619171,197.149948 
	C383.824554,197.010178 371.029938,196.869034 358.242279,195.826157 
	C358.212860,185.163254 358.367767,174.495758 358.102234,163.838745 
	C357.836334,153.166443 348.303009,144.074509 337.641083,143.960968 
	C331.310455,143.893539 324.978516,143.943634 318.647186,143.942245 
	C313.534729,143.941116 308.422272,143.942017 302.754639,143.942017 
	C302.754639,141.508652 302.754669,139.717163 302.754639,137.925674 
	C302.754425,126.429291 302.822357,114.931984 302.667725,103.437675 
	C302.648407,102.001450 301.452118,100.581062 300.801239,99.153343 
	C300.263977,100.528374 299.275208,101.898575 299.260437,103.279190 
	C299.135803,114.940857 299.200256,126.604446 299.176758,138.267395 
	C299.173218,140.025986 299.008362,141.784241 298.917542,143.554245 
	C283.645233,143.554245 268.918182,143.554245 253.825592,143.554245 
	C253.825592,123.027824 253.768860,102.886383 253.963440,82.747375 
	C253.975403,81.511040 255.735565,79.787041 257.086914,79.154945 
	C263.161804,76.313423 266.300476,71.919708 266.067078,65.042290 
	C265.816589,57.660442 260.943634,51.937511 253.754929,51.077400 
	C246.842651,50.250359 239.808548,54.648102 238.116287,60.854698 
	C236.034271,68.490822 239.178131,76.264870 246.067764,78.665527 
	C249.732605,79.942520 250.335632,81.874825 250.312195,85.234863 
	C250.187836,103.061729 250.261642,120.889931 250.240311,138.717636 
	C250.238388,140.313492 250.047028,141.909119 249.917038,143.915390 
	C238.345978,143.915390 227.215302,143.915390 216.026031,142.997574 
	C216.026031,137.116302 216.026031,131.235031 216.026031,124.991776 
	C211.893204,124.991776 208.451065,124.991776 204.914627,124.059280 
	C204.905090,117.069267 204.986816,110.076897 204.805710,103.091331 
	C204.771240,101.761993 203.697174,100.459610 203.102753,99.144783 
	C202.504623,100.459732 201.430481,101.759331 201.387512,103.092171 
	C201.151794,110.404915 201.168732,117.725800 200.149292,125.029953 
	C182.005920,125.030190 163.861465,124.907379 145.719543,125.070168 
	C131.596817,125.196899 121.429329,133.917297 120.839386,147.679276 
	C120.077507,165.452042 120.512711,183.276123 119.436607,201.219177 
	C114.491570,201.236084 109.541893,201.142761 104.604912,201.350891 
	C103.435791,201.400177 102.309334,202.461472 101.163254,203.057220 
	C102.263077,203.693741 103.342323,204.834854 104.466225,204.880692 
	C109.732925,205.095474 115.011925,205.008820 120.314766,205.962357 
	C120.342247,219.981354 120.369728,234.000366 119.397186,248.119720 
	C106.948410,248.236191 94.499634,248.352646 81.643150,248.058365 
	C81.480667,247.954391 81.318176,247.850418 81.157059,246.983154 
	C79.704750,238.764420 73.839310,234.977676 64.131516,235.991425 
	C57.467464,236.687302 52.570759,243.420776 52.989906,251.312286 
	C53.383457,258.721954 59.068970,263.983765 66.757378,264.053711 
	C75.719330,264.135223 80.602196,259.861908 81.577271,251.239304 
	C81.577271,251.239304 81.939468,251.112411 82.880386,251.213715 
	C95.281624,251.179520 107.682869,251.145325 120.213371,252.027710 
	C120.268181,267.681427 120.322990,283.335175 119.386086,299.102173 
	C114.435600,299.116699 109.480286,299.018341 104.538239,299.229950 
	C103.391045,299.279083 102.289078,300.384644 101.166306,301.004089 
	C102.291801,301.620819 103.395340,302.719391 104.546547,302.771851 
	C109.816360,303.011963 115.099525,302.959076 120.338547,303.944580 
	C120.498070,320.577515 120.668915,337.210327 120.812630,353.843384 
	C120.891693,362.994934 132.568085,374.643555 143.575806,374.267853 
	C162.694565,373.615234 181.851837,374.090271 201.183731,375.003387 
	C201.231522,382.301056 201.185455,389.601715 201.415680,396.893616 
	C201.456039,398.171631 202.656403,399.412994 203.321045,400.671295 
	C203.838715,399.457825 204.775711,398.254578 204.805588,397.029205 
	C204.991623,389.402435 204.974442,381.770691 205.958008,374.122711 
	C219.973633,374.111542 233.989258,374.100342 248.208603,374.998535 
	C248.258804,387.815338 248.126480,400.636932 248.463455,413.446198 
	C248.573578,417.632599 247.603088,419.855835 243.451416,421.551300 
	C237.136429,424.130219 234.490356,431.211243 236.159302,438.417786 
	C237.441513,443.954437 243.821915,448.703186 250.001038,448.719757 
	C256.352173,448.736786 262.627014,444.159790 263.889557,438.589142 
	C265.622192,430.944580 263.129242,424.797150 256.895935,421.515778 
	C255.319534,420.685944 253.645523,420.041595 252.031845,419.318939 
	C252.031845,404.088837 252.031845,389.117157 252.963684,374.123138 
	C264.357300,374.115265 275.756042,374.297363 287.141571,373.989716 
	C290.803955,373.890778 294.431427,372.500732 298.714539,372.320435 
	C298.861145,380.428467 298.935455,388.539093 299.223816,396.642090 
	C299.273285,398.032501 300.234924,399.390472 300.775146,400.763428 
	C301.448029,399.357025 302.666504,397.965729 302.705872,396.541809 
	C302.976471,386.761292 303.000275,376.973969 303.768860,366.985718 
z"/>
<path fill="#71DCD4" opacity="1.000000" stroke="none" 
	d="
M358.259674,298.289734 
	C358.247925,309.749634 357.670563,321.244263 358.371887,332.660339 
	C359.193329,346.031708 348.282898,356.701691 334.828644,356.631073 
	C326.857758,356.589203 318.886230,356.677765 310.153473,356.528809 
	C305.918365,356.293976 302.444733,356.238007 298.506592,356.136139 
	C282.838318,356.090271 267.634583,356.090271 252.031845,356.090271 
	C252.031845,362.590332 252.031845,368.367889 252.031845,374.145477 
	C252.031845,389.117157 252.031845,404.088837 252.031845,419.318939 
	C253.645523,420.041595 255.319534,420.685944 256.895935,421.515778 
	C263.129242,424.797150 265.622192,430.944580 263.889557,438.589142 
	C262.627014,444.159790 256.352173,448.736786 250.001038,448.719757 
	C243.821915,448.703186 237.441513,443.954437 236.159302,438.417786 
	C234.490356,431.211243 237.136429,424.130219 243.451416,421.551300 
	C247.603088,419.855835 248.573578,417.632599 248.463455,413.446198 
	C248.126480,400.636932 248.258804,387.815338 248.390930,374.232910 
	C248.701523,369.157440 248.717178,364.840332 248.992889,360.539917 
	C249.223083,356.949585 247.560883,355.938354 244.225082,355.991150 
	C235.402374,356.130890 226.576004,356.038116 217.751083,356.037933 
	C213.651245,356.037842 209.551407,356.037872 205.024658,356.037872 
	C205.024658,362.560211 205.024658,368.350403 205.024658,374.140594 
	C204.974442,381.770691 204.991623,389.402435 204.805588,397.029205 
	C204.775711,398.254578 203.838715,399.457825 203.321045,400.671295 
	C202.656403,399.412994 201.456039,398.171631 201.415680,396.893616 
	C201.185455,389.601715 201.231522,382.301056 201.372131,374.235535 
	C201.560516,367.756470 201.560516,362.045258 201.560516,356.037231 
	C189.744370,356.037231 178.446548,356.071564 167.149033,356.027740 
	C155.338501,355.981903 146.045197,346.650452 146.007095,334.824341 
	C145.971741,323.847931 145.992538,312.871277 145.986481,301.597229 
	C145.985779,300.901520 145.987228,300.503326 145.988464,299.629883 
	C145.992142,284.801117 146.029388,270.447418 145.955811,256.094299 
	C145.947021,254.381378 145.334503,252.671555 145.001526,250.614532 
	C145.001358,249.581528 145.001495,248.894257 145.298920,247.891602 
	C145.730591,245.766388 145.980209,243.956711 145.982025,242.146759 
	C146.007660,216.531815 145.981964,190.916794 146.007736,165.301849 
	C146.019485,153.616394 155.514252,144.040436 167.063034,143.988373 
	C178.704865,143.935883 190.346771,143.898727 202.453186,143.899750 
	C207.306702,143.934891 211.695648,143.925140 216.084610,143.915390 
	C227.215302,143.915390 238.345978,143.915390 249.917038,143.915390 
	C250.047028,141.909119 250.238388,140.313492 250.240311,138.717636 
	C250.261642,120.889931 250.187836,103.061729 250.312195,85.234863 
	C250.335632,81.874825 249.732605,79.942520 246.067764,78.665527 
	C239.178131,76.264870 236.034271,68.490822 238.116287,60.854698 
	C239.808548,54.648102 246.842651,50.250359 253.754929,51.077400 
	C260.943634,51.937511 265.816589,57.660442 266.067078,65.042290 
	C266.300476,71.919708 263.161804,76.313423 257.086914,79.154945 
	C255.735565,79.787041 253.975403,81.511040 253.963440,82.747375 
	C253.768860,102.886383 253.825592,123.027824 253.825592,143.554245 
	C268.918182,143.554245 283.645233,143.554245 298.917542,143.554245 
	C299.008362,141.784241 299.173218,140.025986 299.176758,138.267395 
	C299.200256,126.604446 299.135803,114.940857 299.260437,103.279190 
	C299.275208,101.898575 300.263977,100.528374 300.801208,99.153336 
	C301.452118,100.581062 302.648407,102.001450 302.667725,103.437675 
	C302.822357,114.931984 302.754425,126.429291 302.754639,137.925674 
	C302.754669,139.717163 302.754639,141.508652 302.754639,143.942017 
	C308.422272,143.942017 313.534729,143.941116 318.647186,143.942245 
	C324.978516,143.943634 331.310455,143.893539 337.641083,143.960968 
	C348.303009,144.074509 357.836334,153.166443 358.102234,163.838745 
	C358.367767,174.495758 358.212860,185.163254 358.150085,196.730392 
	C358.120453,198.852631 358.183014,200.070648 358.245575,201.288651 
	C358.247650,216.459396 358.249695,231.630127 358.180695,247.704315 
	C358.183990,249.522415 358.258301,250.437073 358.332642,251.351730 
	C358.307037,265.838348 358.281433,280.324951 358.169891,295.689453 
	C358.142517,297.141479 358.201111,297.715607 358.259674,298.289734 
M215.041779,147.934647 
	C200.210297,147.928680 185.358383,148.403458 170.553406,147.774017 
	C157.230896,147.207611 149.698410,157.634750 149.790771,168.517075 
	C150.169785,213.175262 149.948090,257.838562 149.949005,302.499969 
	C149.949219,312.998718 149.855362,323.498749 149.987762,333.995880 
	C150.115036,344.085876 157.792816,352.036102 167.504364,352.043884 
	C215.331528,352.082184 263.158752,352.034119 311.915741,352.166229 
	C319.576324,352.180969 327.237396,352.256042 334.897400,352.196533 
	C347.001160,352.102509 354.266663,345.072449 354.284637,332.946472 
	C354.366730,277.488770 354.362823,222.030807 354.278015,166.573120 
	C354.260742,155.296082 346.660919,147.854507 335.371399,147.818497 
	C309.224884,147.735077 283.077850,147.765900 256.931091,147.794220 
	C243.279037,147.809006 229.627075,147.916473 215.041779,147.934647 
M247.169327,56.399513 
	C242.138458,60.181625 240.406570,65.081718 242.467102,69.703674 
	C244.344406,73.914749 249.686844,76.628357 253.998825,75.561028 
	C259.876404,74.106178 263.322601,68.450050 261.890045,62.609425 
	C260.532410,57.074532 254.467682,54.245728 247.169327,56.399513 
M241.709641,428.423187 
	C239.018799,433.291748 239.269623,437.810364 242.595749,441.213959 
	C245.963303,444.659882 250.041473,445.451233 254.440659,443.605377 
	C258.551849,441.880341 260.775177,437.304138 260.064209,432.466187 
	C259.476654,428.468170 257.051819,425.914581 253.333252,424.599792 
	C248.890030,423.028748 245.218750,424.450806 241.709641,428.423187 
z"/>
<path fill="#42A5FF" opacity="1.000000" stroke="none" 
	d="
M201.988647,143.854843 
	C190.346771,143.898727 178.704865,143.935883 167.063034,143.988373 
	C155.514252,144.040436 146.019485,153.616394 146.007736,165.301849 
	C145.981964,190.916794 146.007660,216.531815 145.982025,242.146759 
	C145.980209,243.956711 145.730591,245.766388 144.832794,247.831146 
	C136.178665,248.063843 128.287933,248.041595 120.397209,248.019363 
	C120.369728,234.000366 120.342247,219.981354 120.744301,205.486359 
	C129.066360,204.917313 136.958893,204.824265 144.851425,204.731201 
	C144.875046,204.030716 144.898666,203.330231 144.922302,202.629745 
	C143.322205,202.413010 141.728058,202.084274 140.120987,201.999161 
	C133.560272,201.651642 126.995621,201.378586 120.432419,201.078110 
	C120.512711,183.276123 120.077507,165.452042 120.839386,147.679276 
	C121.429329,133.917297 131.596817,125.196899 145.719543,125.070168 
	C163.861465,124.907379 182.005920,125.030190 200.891357,125.345909 
	C201.751495,131.455322 201.869553,137.248779 201.988708,143.245392 
	C201.989777,143.448547 201.988647,143.854843 201.988647,143.854843 
z"/>
<path fill="#42A5FF" opacity="1.000000" stroke="none" 
	d="
M145.988602,301.894745 
	C145.992538,312.871277 145.971741,323.847931 146.007095,334.824341 
	C146.045197,346.650452 155.338501,355.981903 167.149033,356.027740 
	C178.446548,356.071564 189.744370,356.037231 201.560516,356.037231 
	C201.560516,362.045258 201.560516,367.756470 201.276733,373.780090 
	C181.851837,374.090271 162.694565,373.615234 143.575806,374.267853 
	C132.568085,374.643555 120.891693,362.994934 120.812630,353.843384 
	C120.668915,337.210327 120.498070,320.577515 120.795609,303.463104 
	C124.077888,302.957092 126.907791,303.027313 129.727310,302.887848 
	C135.150848,302.619537 140.568512,302.232544 145.988602,301.894745 
z"/>
<path fill="#42A5FF" opacity="1.000000" stroke="none" 
	d="
M145.001831,250.960281 
	C145.334503,252.671555 145.947021,254.381378 145.955811,256.094299 
	C146.029388,270.447418 145.992142,284.801117 145.606354,299.456116 
	C136.942215,299.501373 128.660004,299.245117 120.377800,298.988892 
	C120.322990,283.335175 120.268181,267.681427 120.607101,251.563583 
	C129.001160,251.053070 137.001495,251.006668 145.001831,250.960281 
z"/>
<path fill="#43A6FE" opacity="1.000000" stroke="none" 
	d="
M252.497772,374.134308 
	C252.031845,368.367889 252.031845,362.590332 252.031845,356.090271 
	C267.634583,356.090271 282.838318,356.090271 298.522766,356.364075 
	C299.003540,356.637909 299.054810,357.095520 299.071289,357.552521 
	C298.750153,362.573456 298.412506,367.137390 298.074890,371.701324 
	C294.431427,372.500732 290.803955,373.890778 287.141571,373.989716 
	C275.756042,374.297363 264.357300,374.115265 252.497772,374.134308 
z"/>
<path fill="#43A6FE" opacity="1.000000" stroke="none" 
	d="
M205.491333,374.131653 
	C205.024658,368.350403 205.024658,362.560211 205.024658,356.037872 
	C209.551407,356.037872 213.651245,356.037842 217.751083,356.037933 
	C226.576004,356.038116 235.402374,356.130890 244.225082,355.991150 
	C247.560883,355.938354 249.223083,356.949585 248.992889,360.539917 
	C248.717178,364.840332 248.701523,369.157440 248.289062,373.778259 
	C233.989258,374.100342 219.973633,374.111542 205.491333,374.131653 
z"/>
<path fill="#75DFD3" opacity="1.000000" stroke="none" 
	d="
M421.985992,248.270706 
	C425.660950,238.043274 429.218048,235.466736 438.966003,235.971466 
	C445.778290,236.324188 451.006653,242.387405 451.018860,249.948944 
	C451.031097,257.529572 445.835663,263.651215 439.070435,264.027405 
	C429.298767,264.570740 424.668091,261.172577 422.135437,251.016678 
	C421.991028,249.643097 421.988495,248.956894 421.985992,248.270706 
M427.940796,255.358536 
	C428.723328,256.212769 429.391144,257.635498 430.308655,257.820587 
	C433.849792,258.534882 437.692139,259.823853 441.004181,259.067657 
	C444.890350,258.180359 446.878174,254.375092 446.945923,250.181046 
	C447.017334,245.761261 444.953705,241.834946 440.881409,240.873688 
	C437.595428,240.098068 433.188446,240.671173 430.303833,242.378128 
	C425.766693,245.063004 425.623413,249.954086 427.940796,255.358536 
z"/>
<path fill="#75DFD3" opacity="1.000000" stroke="none" 
	d="
M81.225571,251.391556 
	C80.602196,259.861908 75.719330,264.135223 66.757378,264.053711 
	C59.068970,263.983765 53.383457,258.721954 52.989906,251.312286 
	C52.570759,243.420776 57.467464,236.687302 64.131516,235.991425 
	C73.839310,234.977676 79.704750,238.764420 81.105133,247.819580 
	C81.110657,249.567871 81.168114,250.479706 81.225571,251.391556 
M62.070530,258.738892 
	C68.791710,261.714447 75.224709,259.329071 77.052811,253.183441 
	C78.573463,248.071365 76.359245,242.967377 71.647202,240.723007 
	C67.245605,238.626495 61.563229,240.196182 58.895809,244.245377 
	C55.684334,249.120468 56.528225,253.797180 62.070530,258.738892 
z"/>
<path fill="#47A9FD" opacity="1.000000" stroke="none" 
	d="
M202.453186,143.899750 
	C201.988647,143.854843 201.989777,143.448547 202.404694,143.221588 
	C203.523911,141.771210 204.767151,140.577621 204.836777,139.319107 
	C205.100388,134.554733 204.983475,129.769318 205.008942,124.991776 
	C208.451065,124.991776 211.893204,124.991776 216.026031,124.991776 
	C216.026031,131.235031 216.026031,137.116302 216.055328,143.456482 
	C211.695648,143.925140 207.306702,143.934891 202.453186,143.899750 
z"/>
<path fill="#6DDDD0" opacity="1.000000" stroke="none" 
	d="
M145.001526,250.614532 
	C137.001495,251.006668 129.001160,251.053070 120.542465,251.105286 
	C107.682869,251.145325 95.281624,251.179520 82.435097,250.827377 
	C82.010155,249.783722 82.030510,249.126419 82.050858,248.469101 
	C94.499634,248.352646 106.948410,248.236191 119.897202,248.069550 
	C128.287933,248.041595 136.178665,248.063843 144.535522,248.146530 
	C145.001495,248.894257 145.001358,249.581528 145.001526,250.614532 
z"/>
<path fill="#6DDDD0" opacity="1.000000" stroke="none" 
	d="
M421.521942,248.206726 
	C421.988495,248.956894 421.991028,249.643097 421.993774,250.674713 
	C401.285309,251.052292 380.576630,251.084442 359.414307,250.741852 
	C358.990326,249.614319 359.019928,248.861526 359.049500,248.108749 
	C379.718964,248.120071 400.388428,248.131409 421.521942,248.206726 
z"/>
<path fill="#9FE9E0" opacity="1.000000" stroke="none" 
	d="
M358.685638,201.203003 
	C358.183014,200.070648 358.120453,198.852631 358.146606,197.181458 
	C371.029938,196.869034 383.824554,197.010178 396.619171,197.149948 
	C397.949890,197.164474 399.344147,196.931503 400.589935,197.261948 
	C401.475098,197.496750 402.160095,198.486130 402.934418,199.138748 
	C402.138550,199.761566 401.381439,200.851837 400.539673,200.921692 
	C397.730316,201.154892 394.890656,201.022690 392.062592,201.030182 
	C381.083618,201.059296 370.104675,201.088303 358.685638,201.203003 
z"/>
<path fill="#83D5E8" opacity="1.000000" stroke="none" 
	d="
M119.881943,299.045532 
	C128.660004,299.245117 136.942215,299.501373 145.606537,299.931396 
	C145.987228,300.503326 145.985779,300.901520 145.986481,301.597229 
	C140.568512,302.232544 135.150848,302.619537 129.727310,302.887848 
	C126.907791,303.027313 124.077888,302.957092 120.815292,302.996521 
	C115.099525,302.959076 109.816360,303.011963 104.546547,302.771851 
	C103.395340,302.719391 102.291801,301.620819 101.166306,301.004089 
	C102.289078,300.384644 103.391045,299.279083 104.538239,299.229950 
	C109.480286,299.018341 114.435600,299.116699 119.881943,299.045532 
z"/>
<path fill="#6DDDD0" opacity="1.000000" stroke="none" 
	d="
M358.903748,295.868408 
	C363.842682,295.656311 368.780090,295.321655 373.720886,295.259857 
	C381.859528,295.157990 390.002045,295.150848 398.138641,295.315704 
	C399.448730,295.342255 400.736603,296.467041 402.034760,297.084106 
	C400.846649,297.644562 399.660278,298.687134 398.470154,298.691467 
	C385.519684,298.738586 372.568634,298.623047 359.300659,297.964478 
	C358.957001,296.874207 358.930359,296.371307 358.903748,295.868408 
z"/>
<path fill="#7ADDD8" opacity="1.000000" stroke="none" 
	d="
M298.394714,372.010864 
	C298.412506,367.137390 298.750153,362.573456 299.478882,357.530823 
	C300.589905,358.240112 301.600037,359.346069 301.964111,360.634552 
	C302.563812,362.757172 302.745575,364.997894 303.103516,367.188812 
	C303.000275,376.973969 302.976471,386.761292 302.705872,396.541809 
	C302.666504,397.965729 301.448029,399.357025 300.775146,400.763428 
	C300.234924,399.390472 299.273285,398.032501 299.223816,396.642090 
	C298.935455,388.539093 298.861145,380.428467 298.394714,372.010864 
z"/>
<path fill="#75DDD5" opacity="1.000000" stroke="none" 
	d="
M204.961792,124.525528 
	C204.983475,129.769318 205.100388,134.554733 204.836777,139.319107 
	C204.767151,140.577621 203.523911,141.771210 202.403610,143.018433 
	C201.869553,137.248779 201.751495,131.455322 201.366180,125.352875 
	C201.168732,117.725800 201.151794,110.404915 201.387512,103.092171 
	C201.430481,101.759331 202.504623,100.459732 203.102753,99.144791 
	C203.697174,100.459610 204.771240,101.761993 204.805710,103.091331 
	C204.986816,110.076897 204.905090,117.069267 204.961792,124.525528 
z"/>
<path fill="#85D9E5" opacity="1.000000" stroke="none" 
	d="
M119.934509,201.148651 
	C126.995621,201.378586 133.560272,201.651642 140.120987,201.999161 
	C141.728058,202.084274 143.322205,202.413010 144.922302,202.629745 
	C144.898666,203.330231 144.875046,204.030716 144.851425,204.731201 
	C136.958893,204.824265 129.066360,204.917313 120.730179,205.020111 
	C115.011925,205.008820 109.732925,205.095474 104.466225,204.880692 
	C103.342323,204.834854 102.263077,203.693741 101.163254,203.057220 
	C102.309334,202.461472 103.435791,201.400177 104.604912,201.350891 
	C109.541893,201.142761 114.491570,201.236084 119.934509,201.148651 
z"/>
<path fill="#4CAEFA" opacity="1.000000" stroke="none" 
	d="
M303.436188,367.087280 
	C302.745575,364.997894 302.563812,362.757172 301.964111,360.634552 
	C301.600037,359.346069 300.589905,358.240112 299.462402,357.073853 
	C299.054810,357.095520 299.003540,356.637909 298.987335,356.409973 
	C302.444733,356.238007 305.918365,356.293976 309.691254,356.622803 
	C307.916656,360.259003 305.842773,363.622375 303.436188,367.087280 
z"/>
<path fill="#9FE9E0" opacity="1.000000" stroke="none" 
	d="
M358.864807,247.991302 
	C359.019928,248.861526 358.990326,249.614319 358.940857,250.747223 
	C358.920990,251.127335 358.628387,251.247437 358.480530,251.299591 
	C358.258301,250.437073 358.183990,249.522415 358.194458,248.152863 
	C358.279266,247.697952 358.680084,247.873871 358.864807,247.991302 
z"/>
<path fill="#83D5E8" opacity="1.000000" stroke="none" 
	d="
M81.847000,248.263733 
	C82.030510,249.126419 82.010155,249.783722 81.964638,250.776733 
	C81.939468,251.112411 81.577271,251.239304 81.401421,251.315430 
	C81.168114,250.479706 81.110657,249.567871 81.104446,248.201233 
	C81.318176,247.850418 81.480667,247.954391 81.847000,248.263733 
z"/>
<path fill="#9FE9E0" opacity="1.000000" stroke="none" 
	d="
M358.741486,295.833801 
	C358.930359,296.371307 358.957001,296.874207 358.943665,297.754211 
	C358.903687,298.131287 358.577454,298.198395 358.418579,298.244080 
	C358.201111,297.715607 358.142517,297.141479 358.171631,296.139282 
	C358.259308,295.711212 358.579254,295.799225 358.741486,295.833801 
z"/>
<path fill="#42A5FF" opacity="1.000000" stroke="none" 
	d="
M310.985962,352.016541 
	C263.158752,352.034119 215.331528,352.082184 167.504364,352.043884 
	C157.792816,352.036102 150.115036,344.085876 149.987762,333.995880 
	C149.855362,323.498749 149.949219,312.998718 149.949005,302.499969 
	C149.948090,257.838562 150.169785,213.175262 149.790771,168.517075 
	C149.698410,157.634750 157.230896,147.207611 170.553406,147.774017 
	C185.358383,148.403458 200.210297,147.928680 215.511932,148.428925 
	C215.955521,156.968231 215.928970,165.013290 215.441345,173.079041 
	C209.148560,173.108322 203.316223,173.066040 197.485229,173.135651 
	C183.617935,173.301178 173.495041,184.435532 173.758667,197.130569 
	C174.488434,232.272888 174.420822,267.447540 173.797897,302.593964 
	C173.567764,315.578918 183.143265,326.722321 196.813980,326.770874 
	C234.764252,326.905609 272.716949,326.360291 310.788269,326.532928 
	C310.933838,335.326996 310.959900,343.671753 310.985962,352.016541 
z"/>
<path fill="#FEFFFF" opacity="1.000000" stroke="none" 
	d="
M311.450867,352.091370 
	C310.959900,343.671753 310.933838,335.326996 311.021149,326.248566 
	C320.487976,321.534821 326.658081,314.849121 326.721252,304.385254 
	C326.940308,268.088043 326.945221,231.787842 326.725525,195.490631 
	C326.650970,183.168854 316.766296,173.948013 304.553619,173.934875 
	C276.913422,173.905167 249.273117,173.941452 221.632980,173.886429 
	C219.722260,173.882629 217.812576,173.346756 215.902420,173.058319 
	C215.928970,165.013290 215.955521,156.968231 215.978577,148.452637 
	C229.627075,147.916473 243.279037,147.809006 256.931091,147.794220 
	C283.077850,147.765900 309.224884,147.735077 335.371399,147.818497 
	C346.660919,147.854507 354.260742,155.296082 354.278015,166.573120 
	C354.362823,222.030807 354.366730,277.488770 354.284637,332.946472 
	C354.266663,345.072449 347.001160,352.102509 334.897400,352.196533 
	C327.237396,352.256042 319.576324,352.180969 311.450867,352.091370 
z"/>
<path fill="#FBFEFE" opacity="1.000000" stroke="none" 
	d="
M247.521545,56.235634 
	C254.467682,54.245728 260.532410,57.074532 261.890045,62.609425 
	C263.322601,68.450050 259.876404,74.106178 253.998825,75.561028 
	C249.686844,76.628357 244.344406,73.914749 242.467102,69.703674 
	C240.406570,65.081718 242.138458,60.181625 247.521545,56.235634 
z"/>
<path fill="#FCFEFE" opacity="1.000000" stroke="none" 
	d="
M241.910736,428.090027 
	C245.218750,424.450806 248.890030,423.028748 253.333252,424.599792 
	C257.051819,425.914581 259.476654,428.468170 260.064209,432.466187 
	C260.775177,437.304138 258.551849,441.880341 254.440659,443.605377 
	C250.041473,445.451233 245.963303,444.659882 242.595749,441.213959 
	C239.269623,437.810364 239.018799,433.291748 241.910736,428.090027 
z"/>
<path fill="#FCFEFE" opacity="1.000000" stroke="none" 
	d="
M427.720520,255.046844 
	C425.623413,249.954086 425.766693,245.063004 430.303833,242.378128 
	C433.188446,240.671173 437.595428,240.098068 440.881409,240.873688 
	C444.953705,241.834946 447.017334,245.761261 446.945923,250.181046 
	C446.878174,254.375092 444.890350,258.180359 441.004181,259.067657 
	C437.692139,259.823853 433.849792,258.534882 430.308655,257.820587 
	C429.391144,257.635498 428.723328,256.212769 427.720520,255.046844 
z"/>
<path fill="#FCFEFE" opacity="1.000000" stroke="none" 
	d="
M61.750011,258.512756 
	C56.528225,253.797180 55.684334,249.120468 58.895809,244.245377 
	C61.563229,240.196182 67.245605,238.626495 71.647202,240.723007 
	C76.359245,242.967377 78.573463,248.071365 77.052811,253.183441 
	C75.224709,259.329071 68.791710,261.714447 61.750011,258.512756 
z"/>
<path fill="#7BDFD6" opacity="1.000000" stroke="none" 
	d="
M215.441345,173.079025 
	C217.812576,173.346756 219.722260,173.882629 221.632980,173.886429 
	C249.273117,173.941452 276.913422,173.905167 304.553619,173.934875 
	C316.766296,173.948013 326.650970,183.168854 326.725525,195.490631 
	C326.945221,231.787842 326.940308,268.088043 326.721252,304.385254 
	C326.658081,314.849121 320.487976,321.534821 310.901611,325.799286 
	C272.716949,326.360291 234.764252,326.905609 196.813980,326.770874 
	C183.143265,326.722321 173.567764,315.578918 173.797897,302.593964 
	C174.420822,267.447540 174.488434,232.272888 173.758667,197.130569 
	C173.495041,184.435532 183.617935,173.301178 197.485229,173.135651 
	C203.316223,173.066040 209.148560,173.108322 215.441345,173.079025 
M281.500000,177.826340 
	C253.333786,177.828232 225.167435,177.777496 197.001450,177.858032 
	C185.833176,177.889954 177.982590,185.626404 177.960785,196.637573 
	C177.890472,232.136765 177.886734,267.636292 177.961411,303.135468 
	C177.984619,314.166992 185.743408,322.071625 196.857819,322.111847 
	C232.356644,322.240265 267.856506,322.238190 303.355347,322.115540 
	C314.624237,322.076599 322.217468,314.485382 322.251862,303.276062 
	C322.361237,267.610474 322.354370,231.944138 322.241669,196.278564 
	C322.207489,185.462936 314.394958,177.972916 303.499420,177.850021 
	C296.500427,177.771088 289.499847,177.829269 281.500000,177.826340 
z"/>
<path fill="#FFFFFF" opacity="1.000000" stroke="none" 
	d="
M282.000000,177.826172 
	C289.499847,177.829269 296.500427,177.771088 303.499420,177.850021 
	C314.394958,177.972916 322.207489,185.462936 322.241669,196.278564 
	C322.354370,231.944138 322.361237,267.610474 322.251862,303.276062 
	C322.217468,314.485382 314.624237,322.076599 303.355347,322.115540 
	C267.856506,322.238190 232.356644,322.240265 196.857819,322.111847 
	C185.743408,322.071625 177.984619,314.166992 177.961411,303.135468 
	C177.886734,267.636292 177.890472,232.136765 177.960785,196.637573 
	C177.982590,185.626404 185.833176,177.889954 197.001450,177.858032 
	C225.167435,177.777496 253.333786,177.828232 282.000000,177.826172 
z"/>
</svg>